<svg xmlns="http://www.w3.org/2000/svg" version="1.1" xmlns:xlink="http://www.w3.org/1999/xlink" xmlns:svgjs="http://svgjs.dev/svgjs" width="100%" height="100%" viewBox="0 0 1000 600"><rect width="1000" height="600" x="0" y="0" fill="#343a40"/><g><rect width="333.3333333333333" height="333.3333333333333" rx="13.333333333333334" ry="13.333333333333334" y="126.93308722279593" fill="#209cee" transform="matrix(1.1937634022723278,0,0,1.193763402272328,0,-50.48864466992346)" x="104.71086883544922"/><path d="M186.3464595605289 368.59974115875286L186.3464595605289 368.59974115875286Q171.00010264001506 368.59974115875286 161.64841639157692 358.8217672180782Q152.2967301431388 349.04379327740355 152.2967301431388 333.11129078006456L152.2967301431388 333.11129078006456L152.2967301431388 254.0882098317241Q152.2967301431388 238.07577839209074 161.64841639157692 228.3244474321809Q171.00010264001506 218.59975945303586 186.3464595605289 218.59975945303586L186.3464595605289 218.59975945303586Q201.79938840410188 218.59975945303586 211.09778869101044 228.3244474321809Q220.396188977919 238.07577839209074 220.396188977919 254.0882098317241L220.396188977919 254.0882098317241L220.396188977919 333.11129078006456Q220.396188977919 349.04379327740355 211.09778869101044 358.8217672180782Q201.79938840410188 368.59974115875286 186.3464595605289 368.59974115875286ZM186.3464595605289 354.21253154577107L186.3464595605289 354.21253154577107Q195.27185811673053 354.21253154577107 200.6537402312163 348.4043617390489Q206.00897936493726 342.6228349130914 206.00897936493726 333.11129078006456L206.00897936493726 333.11129078006456L206.00897936493726 254.0882098317241Q206.00897936493726 244.57666569869733 200.6537402312163 238.79513887273984Q195.27185811673053 232.9869690660176 186.3464595605289 232.9869690660176L186.3464595605289 232.9869690660176Q177.44770398509206 232.9869690660176 172.0658218706063 238.79513887273984Q166.68393975612054 244.57666569869733 166.68393975612054 254.0882098317241L166.68393975612054 254.0882098317241L166.68393975612054 333.11129078006456Q166.68393975612054 342.6228349130914 172.0658218706063 348.4043617390489Q177.44770398509206 354.21253154577107 186.3464595605289 354.21253154577107ZM266.43525973946055 365.53579837080304L252.04805012647878 365.53579837080304L252.04805012647878 221.66370224098566L310.0764622321718 221.66370224098566L310.0764622321718 236.0509118539674L266.43525973946055 236.0509118539674L266.43525973946055 295.0384712671925L304.9077239638043 295.0384712671925L304.9077239638043 309.42568088017424L266.43525973946055 309.42568088017424L266.43525973946055 365.53579837080304ZM346.8171327068047 365.53579837080304L332.42992309382305 365.53579837080304L332.42992309382305 221.66370224098566L390.4583351995161 221.66370224098566L390.4583351995161 236.0509118539674L346.8171327068047 236.0509118539674L346.8171327068047 295.0384712671925L385.2895969311485 295.0384712671925L385.2895969311485 309.42568088017424L346.8171327068047 309.42568088017424L346.8171327068047 365.53579837080304Z " fill="white" transform="matrix(1.1937634022723278,0,0,1.193763402272328,0,-50.48864466992346)"/><path d="M555.4272624780093 368.59974115875286L555.4272624780093 368.59974115875286Q540.0809055574955 368.59974115875286 530.7292193090573 358.8217672180782Q521.3775330606193 349.04379327740355 521.3775330606193 333.11129078006456L521.3775330606193 333.11129078006456L521.3775330606193 254.0882098317241Q521.3775330606193 238.07577839209074 530.7292193090573 228.3244474321809Q540.0809055574955 218.59975945303586 555.4272624780093 218.59975945303586L555.4272624780093 218.59975945303586Q570.8801913215823 218.59975945303586 580.1785916084909 228.3244474321809Q589.4769918953994 238.07577839209074 589.4769918953994 254.0882098317241L589.4769918953994 254.0882098317241L589.4769918953994 258.8839463693847L575.0897822824177 258.8839463693847L575.0897822824177 254.0882098317241Q575.0897822824177 244.57666569869733 569.7345431486967 238.79513887273984Q564.352661034211 232.9869690660176 555.4272624780093 232.9869690660176L555.4272624780093 232.9869690660176Q546.5285069025724 232.9869690660176 541.1466247880867 238.79513887273984Q535.764742673601 244.57666569869733 535.764742673601 254.0882098317241L535.764742673601 254.0882098317241L535.764742673601 333.11129078006456Q535.764742673601 342.6228349130914 541.1466247880867 348.4043617390489Q546.5285069025724 354.21253154577107 555.4272624780093 354.21253154577107L555.4272624780093 354.21253154577107Q564.352661034211 354.21253154577107 569.7345431486967 348.4043617390489Q575.0897822824177 342.6228349130914 575.0897822824177 333.11129078006456L575.0897822824177 333.11129078006456L575.0897822824177 310.86440184147244L555.8269071894811 310.86440184147244L555.8269071894811 296.47719222849065L589.4769918953994 296.47719222849065L589.4769918953994 333.11129078006456Q589.4769918953994 349.04379327740355 580.1785916084909 358.8217672180782Q570.8801913215823 368.59974115875286 555.4272624780093 368.59974115875286ZM671.4041577471011 221.66370224098566L685.7913673600827 221.66370224098566L685.7913673600827 333.11129078006456Q685.7913673600827 349.04379327740355 676.4929670731741 358.8217672180782Q667.1679238055009 368.59974115875286 651.7416379426926 368.59974115875286L651.7416379426926 368.59974115875286Q636.3952810221787 368.59974115875286 627.0435947737407 358.8217672180782Q617.6919085253024 349.04379327740355 617.6919085253024 333.11129078006456L617.6919085253024 333.11129078006456L617.6919085253024 221.66370224098566L632.0791181382843 221.66370224098566L632.0791181382843 333.11129078006456Q632.0791181382843 342.6228349130914 637.4343572720053 348.4043617390489Q642.816239386491 354.21253154577107 651.7416379426926 354.21253154577107L651.7416379426926 354.21253154577107Q660.6670364988942 354.21253154577107 666.0222756326151 348.4043617390489Q671.4041577471011 342.6228349130914 671.4041577471011 333.11129078006456L671.4041577471011 333.11129078006456L671.4041577471011 221.66370224098566ZM732.9760862945099 221.66370224098566L732.9760862945099 365.53579837080304L718.5888766815282 365.53579837080304L718.5888766815282 221.66370224098566L732.9760862945099 221.66370224098566Z " fill="#ffffff" transform="matrix(1.1937634022723278,0,0,1.193763402272328,0,-50.48864466992346)"/></g></svg>