<svg xmlns="http://www.w3.org/2000/svg" version="1.1" xmlns:xlink="http://www.w3.org/1999/xlink" xmlns:svgjs="http://svgjs.dev/svgjs" width="100%" height="100%" viewBox="0 0 1000 600"><rect width="1000" height="600" x="0" y="0" fill="#343a40"/><g><rect width="333.3333333333333" height="333.3333333333333" rx="13.333333333333334" ry="13.333333333333334" y="139.89275961966194" fill="#0088ff" transform="matrix(1.0622877456194506,0,0,1.0622877456194506,0,-25.65434299165571)" x="117.67053985595702"/><path d="M222.1512741183353 250.43380625050568L222.1512741183353 362.68506253191265L203.24675150526997 381.55943439120915L147.04574648014435 381.55943439120915L128.35227914346092 362.68506253191265L128.35227914346092 250.43380625050568L147.04574648014435 231.5594343912092L203.24675150526997 231.5594343912092L222.1512741183353 250.43380625050568ZM149.84976658064684 362.68506253191265L200.65378668114934 362.68506253191265L200.65378668114934 250.43380625050568L149.84976658064684 250.43380625050568L149.84976658064684 362.68506253191265ZM336.9954952238629 306.45390675301826L336.9954952238629 325.32827861231465L283.568359545471 325.32827861231465L283.568359545471 381.55943439120915L262.1010228620539 381.55943439120915L262.1010228620539 268.88606755703836L280.9753947213504 250.43380625050568L259.4779072841644 250.43380625050568L259.4779072841644 231.5594343912092L336.9954952238629 231.5594343912092L336.9954952238629 250.43380625050568L283.568359545471 250.43380625050568L283.568359545471 322.73531378819405L299.427656027883 306.45390675301826L336.9954952238629 306.45390675301826ZM440.322128389692 306.45390675301826L440.322128389692 325.32827861231465L386.9251434650689 325.32827861231465L386.9251434650689 381.55943439120915L365.427656027883 381.55943439120915L365.427656027883 268.88606755703836L384.3020278871795 250.43380625050568L362.8045404499936 250.43380625050568L362.8045404499936 231.5594343912092L440.322128389692 231.5594343912092L440.322128389692 250.43380625050568L386.9251434650689 250.43380625050568L386.9251434650689 322.73531378819405L402.7542891937121 306.45390675301826L440.322128389692 306.45390675301826Z " fill="#343a40" transform="matrix(1.0622877456194506,0,0,1.0622877456194506,0,-25.65434299165571)"/><path d="M614.4176047630481 231.5594343912092L633.3221273761135 250.43380625050568L555.804539436415 250.43380625050568L555.804539436415 362.68506253191265L606.6085595369174 362.68506253191265L606.6085595369174 306.45390675301826L571.663835918827 306.45390675301826L590.5382077781235 287.7905901701037L628.1060469741034 287.7905901701037L628.1060469741034 381.55943439120915L606.6085595369174 381.55943439120915L606.6085595369174 365.48908263241515L590.5382077781235 381.55943439120915L553.0005193359124 381.55943439120915L534.3372027529978 362.68506253191265L534.3372027529978 250.43380625050568L553.0005193359124 231.5594343912092L614.4176047630481 231.5594343912092ZM759.2316751148069 231.5594343912092L759.2316751148069 381.55943439120915L737.9452429540029 381.55943439120915L737.9452429540029 365.48908263241515L721.8748911952089 381.55943439120915L684.3372027529979 381.55943439120915L665.4326801399325 362.68506253191265L665.4326801399325 231.5594343912092L686.9301675771185 231.5594343912092L686.9301675771185 362.68506253191265L737.9452429540029 362.68506253191265L737.9452429540029 231.5594343912092L759.2316751148069 231.5594343912092ZM823.6939866725959 231.5594343912092L823.6939866725959 381.55943439120915L802.1964992354099 381.55943439120915L802.1964992354099 231.5594343912092L823.6939866725959 231.5594343912092Z " fill="#ffffff" transform="matrix(1.0622877456194506,0,0,1.0622877456194506,0,-25.65434299165571)"/></g></svg>