<svg xmlns="http://www.w3.org/2000/svg" version="1.1" xmlns:xlink="http://www.w3.org/1999/xlink" xmlns:svgjs="http://svgjs.dev/svgjs" width="100%" height="100%" viewBox="0 0 1000 600"><rect width="1000" height="600" x="0" y="0" fill="#0088ff"/><g><rect width="333.3333333333333" height="333.3333333333333" rx="13.333333333333334" ry="13.333333333333334" y="144.60726905299725" fill="#292826" transform="matrix(1.021366746300247,0,0,1.021366746300247,0,-17.924838576489506)" x="122.38503265380862"/><path d="M150.754043350174 344.08550022023644L150.754043350174 278.4623777986768Q150.754043350174 266.76003772350157 156.8152553891109 257.21812966220483Q162.87646742804785 247.64621560071532 173.0184954931997 241.97508156428424Q183.13051755815883 236.27394152766038 195.49298963757474 236.27394152766038L195.49298963757474 236.27394152766038L230.63001586329327 236.27394152766038Q242.9624819425164 236.27394152766038 253.134516007861 241.97508156428424Q263.3065500732057 247.64621560071532 269.33775611194983 257.21812966220483Q275.3389561505012 266.76003772350157 275.3389561505012 278.4623777986768L275.3389561505012 278.4623777986768L275.3389561505012 344.08550022023644Q275.3389561505012 355.6678162946407 269.33775611194983 365.26973635632294Q263.3065500732057 374.8716564180053 253.134516007861 380.57279645462904Q242.9624819425164 386.2739364912529 230.63001586329327 386.2739364912529L230.63001586329327 386.2739364912529L195.49298963757474 386.2739364912529Q183.13051755815883 386.2739364912529 173.0184954931997 380.57279645462904Q162.87646742804785 374.8716564180053 156.8152553891109 365.26973635632294Q150.754043350174 355.6678162946407 150.754043350174 344.08550022023644L150.754043350174 344.08550022023644ZM173.0184954931997 278.3723597980985L173.0184954931997 344.17551822081475Q173.0184954931997 352.3971622736302 179.61981553560625 358.2783383114106Q186.19112957782005 364.12950834899823 195.49298963757474 364.12950834899823L195.49298963757474 364.12950834899823L230.63001586329327 364.12950834899823Q239.99188792343344 364.12950834899823 246.5331959654545 358.2783383114106Q253.07450400747553 352.3971622736302 253.07450400747553 344.17551822081475L253.07450400747553 344.17551822081475L253.07450400747553 278.3723597980985Q253.07450400747553 270.1207097450904 246.5331959654545 264.26953970750276Q239.99188792343344 258.41836966991514 230.63001586329327 258.41836966991514L230.63001586329327 258.41836966991514L195.49298963757474 258.41836966991514Q186.19112957782005 258.41836966991514 179.61981553560625 264.26953970750276Q173.0184954931997 270.1207097450904 173.0184954931997 278.3723597980985L173.0184954931997 278.3723597980985ZM302.7644403266812 344.08550022023644L302.7644403266812 278.4623777986768Q302.7644403266812 266.76003772350157 308.8256523656181 257.21812966220483Q314.9168704047478 247.64621560071532 325.0288924697069 241.97508156428424Q335.17092053485885 236.27394152766038 347.50338661408193 236.27394152766038L347.50338661408193 236.27394152766038L418.4975830701452 236.27394152766038L418.4975830701452 258.41836966991514L347.50338661408193 258.41836966991514Q338.2015265543273 258.41836966991514 331.6302125121134 264.26953970750276Q325.0288924697069 270.1207097450904 325.0288924697069 278.3723597980985L325.0288924697069 278.3723597980985L325.0288924697069 344.17551822081475Q325.0288924697069 352.3971622736302 331.6302125121134 358.2783383114106Q338.2015265543273 364.12950834899823 347.50338661408193 364.12950834899823L347.50338661408193 364.12950834899823L382.64041283980043 364.12950834899823Q392.0022848999406 364.12950834899823 398.5435929419617 358.2783383114106Q405.0849009839827 352.3971622736302 405.0849009839827 344.17551822081475L405.0849009839827 344.17551822081475L405.0849009839827 324.55159409475164L364.3667587224114 324.55159409475164L364.3667587224114 302.40716595249694L427.3493531270085 302.40716595249694L427.3493531270085 344.08550022023644Q427.3493531270085 355.6678162946407 421.348153088457 365.26973635632294Q415.3169470497129 374.8716564180053 405.14491298436826 380.57279645462904Q394.97287891902363 386.2739364912529 382.64041283980043 386.2739364912529L382.64041283980043 386.2739364912529L347.50338661408193 386.2739364912529Q335.17092053485885 386.2739364912529 325.0288924697069 380.57279645462904Q314.9168704047478 374.8716564180053 308.8256523656181 365.26973635632294Q302.7644403266812 355.6678162946407 302.7644403266812 344.08550022023644L302.7644403266812 344.08550022023644Z " fill="#ffffff" transform="matrix(1.021366746300247,0,0,1.021366746300247,0,-17.924838576489506)"/><path d="M539.0516965484163 386.2739364912529L539.0516965484163 236.27394152766038L618.387561058066 236.27394152766038Q628.6196071237962 236.27394152766038 636.9912811775754 241.28494355985083Q645.3929612315474 246.29594559204125 650.4039632637378 254.60760764543494Q655.4149652959283 262.9492756990214 655.4149652959283 273.1813217647516L655.4149652959283 273.1813217647516L655.4149652959283 288.15431586093734Q655.4149652959283 298.17631992531824 650.4039632637378 306.45797597851913Q645.3929612315474 314.73963203172013 636.9912811775754 319.6606160633322Q628.6196071237962 324.55159409475164 618.387561058066 324.55159409475164L618.387561058066 324.55159409475164L573.9786807727855 324.55159409475164L573.9786807727855 302.40716595249694L618.387561058066 302.40716595249694Q624.5988030979667 302.40716595249694 628.9496731259165 298.17631992531824Q633.2705371536734 293.9754798983322 633.2705371536734 287.85425585900975L633.2705371536734 287.85425585900975L633.2705371536734 273.1813217647516Q633.2705371536734 267.06009772542916 628.9496731259165 262.73923369767215Q624.5988030979667 258.41836966991514 618.387561058066 258.41836966991514L618.387561058066 258.41836966991514L561.3161486914421 258.41836966991514L561.3161486914421 386.2739364912529L539.0516965484163 386.2739364912529ZM679.149711448399 386.2739364912529L679.149711448399 307.5681979856512Q679.149711448399 299.13651193148644 683.4105634757706 292.17511988676677Q687.7014215033348 285.2137278420472 694.8128435490182 281.1029058156395Q701.9242655947016 276.99208378923174 710.5959996504084 276.99208378923174L710.5959996504084 276.99208378923174L734.9608718069271 276.99208378923174L734.9608718069271 299.13651193148644L710.5959996504084 299.13651193148644Q706.7852376259283 299.13651193148644 704.0846976085801 301.71702794806356Q701.4141635914248 304.2975439646407 701.4141635914248 307.98828198834974L701.4141635914248 307.98828198834974L701.4141635914248 386.2739364912529L679.149711448399 386.2739364912529ZM753.9546699289424 346.8160462377774L753.9546699289424 316.44997404270725Q753.9546699289424 305.58780197292924 759.2657319630604 296.61600791529486Q764.6067999973711 287.6442138576605 773.5485880548127 282.3031458233497Q782.520382112447 276.99208378923174 793.3825541822251 276.99208378923174L793.3825541822251 276.99208378923174L817.237324335467 276.99208378923174Q828.0994964052451 276.99208378923174 837.0712904628793 282.3031458233497Q846.0430845205137 287.6442138576605 851.3541465546317 296.61600791529486Q856.6952145889425 305.58780197292924 856.6952145889425 316.44997404270725L856.6952145889425 316.44997404270725L856.6952145889425 346.8160462377774Q856.6952145889425 357.6782183075554 851.3541465546317 366.6500123651898Q846.0430845205137 375.6218064228242 837.0712904628793 380.9328684569422Q828.0994964052451 386.2739364912529 817.237324335467 386.2739364912529L817.237324335467 386.2739364912529L793.3825541822251 386.2739364912529Q782.520382112447 386.2739364912529 773.5485880548127 380.9328684569422Q764.6067999973711 375.6218064228242 759.2657319630604 366.6500123651898Q753.9546699289424 357.6782183075554 753.9546699289424 346.8160462377774L753.9546699289424 346.8160462377774ZM776.1891160717754 316.66001604405653L776.1891160717754 346.60600423642813Q776.1891160717754 353.777438282497 781.2601301043513 358.90846431545845Q786.3311441369273 364.00948434822715 793.3825541822251 364.00948434822715L793.3825541822251 364.00948434822715L817.237324335467 364.00948434822715Q824.4087583815359 364.00948434822715 829.4197604137263 358.90846431545845Q834.4307624459167 353.777438282497 834.4307624459167 346.60600423642813L834.4307624459167 346.60600423642813L834.4307624459167 316.66001604405653Q834.4307624459167 309.4885819979876 829.4197604137263 304.3575559650261Q824.4087583815359 299.2565359322574 817.237324335467 299.2565359322574L817.237324335467 299.2565359322574L793.3825541822251 299.2565359322574Q786.3311441369273 299.2565359322574 781.2601301043513 304.3575559650261Q776.1891160717754 309.4885819979876 776.1891160717754 316.66001604405653L776.1891160717754 316.66001604405653Z " fill="#292826" transform="matrix(1.021366746300247,0,0,1.021366746300247,0,-17.924838576489506)"/></g></svg>