<svg xmlns="http://www.w3.org/2000/svg" version="1.1" xmlns:xlink="http://www.w3.org/1999/xlink" xmlns:svgjs="http://svgjs.dev/svgjs" width="100%" height="100%" viewBox="0 0 1000 600"><rect width="1000" height="600" x="0" y="0" fill="#343a40"/><g><rect width="333.3333333333333" height="333.3333333333333" y="121.44015710065422" fill="#0088ff" transform="matrix(1.2598525947857604,0,0,1.2598525947857606,5.062047874182959,-62.972163236741366)" x="114.68045043945312"/><path d="M216.16202663625717 363.1068196712854L141.81635317848188 363.1068196712854Q123.99036867671273 363.1068196712854 113.80409181855893 358.01368124220846Q103.61781496040513 352.92054281313153 99.40890195304297 342.7342659549778Q95.19998894568081 332.54798909682404 95.19998894568081 317.51615692767336L95.19998894568081 317.51615692767336L95.19998894568081 258.69748187520895Q95.19998894568081 243.91323282413853 99.26742588556863 233.8684320334591Q103.33486282545641 223.82363124277964 113.52113968361022 218.58901674622842Q123.70741654176402 213.35440224967715 141.81635317848188 213.35440224967715L141.81635317848188 213.35440224967715L216.16202663625717 213.35440224967715Q233.9880111380263 213.35440224967715 244.03281192870574 218.58901674622842Q254.11298173625377 223.82363124277964 258.32189474361587 233.8684320334591Q262.4954387341095 243.91323282413853 262.4954387341095 258.69748187520895L262.4954387341095 258.69748187520895L262.4954387341095 317.51615692767336Q262.4954387341095 339.94011362235915 252.5921140109044 351.505782138388Q242.65342027083074 363.1068196712854 216.16202663625717 363.1068196712854L216.16202663625717 363.1068196712854ZM149.1731086871485 338.66682901509L149.1731086871485 338.66682901509L209.01748522880206 338.66682901509Q218.46101273271546 338.66682901509 223.66025821239813 333.8212737040932Q228.8948727089494 328.9757183930965 228.8948727089494 320.5932613952407L228.8948727089494 320.5932613952407L228.8948727089494 255.6557464245103Q228.8948727089494 248.2636218989751 223.55415116179236 243.0290074024238Q218.21342961463534 237.82976192274114 209.01748522880206 237.82976192274114L209.01748522880206 237.82976192274114L149.1731086871485 237.82976192274114Q140.0125333181838 237.82976192274114 134.42422865294665 242.6399482168693Q128.8005549708409 247.48550352786611 128.8005549708409 255.6557464245103L128.8005549708409 255.6557464245103L128.8005549708409 320.5932613952407Q128.8005549708409 329.2233015111766 134.28275258547228 333.9627497715676Q139.76495020010367 338.66682901509 149.1731086871485 338.66682901509ZM420.665682170442 363.1068196712854L344.76377197044883 363.1068196712854Q326.6902043505995 363.1068196712854 316.50392749244577 358.01368124220846Q306.317650634292 352.92054281313153 302.2502136944042 342.7342659549778Q298.14740773764777 332.54798909682404 298.14740773764777 317.51615692767336L298.14740773764777 317.51615692767336L298.14740773764777 260.7488848535872Q298.14740773764777 236.2735251805232 309.11180296691055 224.7078566644944Q320.0761981961733 213.10681913159704 344.76377197044883 213.10681913159704L344.76377197044883 213.10681913159704L421.40843152468244 213.10681913159704Q438.9868329083714 213.10681913159704 448.2888843448105 215.01674604250087Q457.5909357812495 216.9266729534047 457.5909357812495 218.97807593178288L457.5909357812495 218.97807593178288L452.4977973521727 240.09337900233086Q448.1474082773361 239.3506296480905 426.8906291393138 238.46640422637574Q405.6338500012914 237.54680978779243 365.13632568675644 237.54680978779243L365.13632568675644 237.54680978779243L352.15589649598405 237.54680978779243Q331.7833427796765 237.54680978779243 331.7833427796765 255.6557464245103L331.7833427796765 255.6557464245103L331.7833427796765 320.5932613952407Q331.7833427796765 329.2233015111766 336.23983890511875 333.9627497715676Q340.69633503056104 338.66682901509 352.15589649598405 338.66682901509L352.15589649598405 338.66682901509L362.58975647221797 338.66682901509Q387.0297471284133 338.66682901509 403.83003014099336 338.2777698295355Q420.665682170442 337.88871064398097 431.5947083828362 337.64112752590086L431.5947083828362 337.64112752590086L431.5947083828362 303.0148600115517L416.3152930956055 303.26244312963183L382.9623101885255 305.8090123441703L382.9623101885255 280.83848643494605L464.9476912899162 280.83848643494605L464.9476912899162 352.4253765769713L467.4942605044546 357.76609812412835Q467.4942605044546 359.78213208563795 456.8128174101406 361.4444758784616Q446.1313743158265 363.1068196712854 420.665682170442 363.1068196712854L420.665682170442 363.1068196712854Z " fill="#343a40" transform="matrix(1.2598525947857604,0,0,1.2598525947857606,5.062047874182959,-62.972163236741366)"/><path d="M567.4942494387396 363.1068196712854L533.8936834135795 363.1068196712854L533.8936834135795 233.72695596598476L531.347114199041 213.10681913159704L644.1742780098418 213.10681913159704Q660.444025769393 213.10681913159704 669.7460772058321 217.45720820643353Q679.0481286422711 221.77222826440146 683.5046247677134 228.77529360438223Q687.9611208931557 235.77835894436294 689.2344055004249 243.6656497060584Q690.5076901076941 251.5529404677539 690.5076901076941 258.69748187520895L690.5076901076941 258.69748187520895L690.5076901076941 273.72931404435957Q690.5076901076941 279.56520182767684 688.7392392642647 286.8512193026063Q686.9354194039666 294.1018677606671 682.0898640929698 300.85734998256777Q677.2796777988416 307.57746318759973 668.0837334130084 312.03395931304203Q658.9231580440436 316.49045543848433 644.1742780098418 316.49045543848433L644.1742780098418 316.49045543848433L618.1780506114285 316.49045543848433Q602.1558859699574 316.49045543848433 588.2558623406017 315.747706084244Q574.3912077281145 314.96958771313496 567.4942494387396 314.4744214769747L567.4942494387396 314.4744214769747L567.4942494387396 363.1068196712854ZM567.4942494387396 237.54680978779243L567.4942494387396 292.05046478228894L636.7821534843066 292.05046478228894Q648.2417149497296 292.05046478228894 652.5567350076975 286.4621601170518Q656.9071240825341 280.83848643494605 656.9071240825341 272.9511956732506L656.9071240825341 272.9511956732506L656.9071240825341 256.9290310317795Q656.9071240825341 248.75878813513532 652.5567350076975 243.17048346989816Q648.2417149497296 237.54680978779243 637.0297366023867 237.54680978779243L637.0297366023867 237.54680978779243L567.4942494387396 237.54680978779243Z " fill="#ffffff" transform="matrix(1.2598525947857604,0,0,1.2598525947857606,5.062047874182959,-62.972163236741366)"/></g></svg>